<?xml version="1.0" standalone="no"?>
<!DOCTYPE svg PUBLIC "-//W3C//DTD SVG 20010904//EN"
 "http://www.w3.org/TR/2001/REC-SVG-20010904/DTD/svg10.dtd">
<svg version="1.0" xmlns="http://www.w3.org/2000/svg"
width="125.000000pt" height="67.000000pt" viewBox="0 0 108.000000 83.000000"
 preserveAspectRatio="xMidYMid meet">
<metadata>
Created by potrace 1.10, written by Peter Selinger 2001-2011
</metadata>
<g transform="translate(0.000000,83.000000) scale(0.100000,-0.100000)"
fill="#ffffff" stroke="none">
<path d="M448 733 c-16 -2 -28 -9 -28 -15 0 -6 -3 -8 -6 -5 -4 4 -22 -7 -42
-24 -21 -18 -40 -28 -50 -24 -17 6 -122 -23 -122 -35 0 -4 -10 -20 -22 -36
-12 -15 -23 -34 -24 -41 -1 -8 -8 -21 -15 -29 -15 -18 -20 -54 -7 -54 5 0 7
-4 4 -9 -18 -28 44 -77 110 -86 47 -7 94 -25 94 -35 0 -5 16 -23 35 -41 38
-36 43 -49 21 -49 -22 0 -76 -56 -76 -80 0 -15 10 -25 35 -36 46 -19 69 -18
113 5 20 11 50 24 66 31 21 8 26 14 18 22 -12 12 -60 1 -140 -34 -53 -24 -74
-18 -70 19 3 22 12 30 62 47 32 12 58 24 57 28 -3 15 -132 129 -157 138 -14 6
-39 10 -56 10 -37 0 -83 26 -96 54 -7 16 -3 34 18 76 40 79 66 100 134 107 31
3 56 9 56 14 0 15 84 58 127 65 54 8 97 -2 89 -21 -4 -11 2 -15 20 -15 39 0
43 -29 7 -59 l-31 -26 66 0 c56 0 79 -6 142 -36 41 -20 89 -50 105 -67 l30
-31 22 21 c28 27 53 17 53 -20 0 -40 -34 -80 -74 -87 -18 -4 -57 -26 -85 -50
-62 -50 -106 -65 -192 -65 l-63 0 26 -28 c38 -39 51 -77 32 -93 -12 -10 -20
-8 -44 9 -35 26 -49 13 -17 -15 18 -17 28 -19 55 -11 32 9 34 11 30 46 -3 20
-7 43 -9 51 -3 10 7 15 36 17 52 4 143 45 174 78 13 14 40 31 59 37 38 12 73
41 90 73 11 22 -1 75 -20 88 -19 11 -56 10 -60 -3 -2 -7 -17 0 -35 15 -17 14
-36 26 -43 26 -6 0 -8 6 -4 13 4 6 4 9 -1 5 -4 -4 -20 -1 -34 7 -52 28 -97 45
-131 49 -19 3 -37 5 -40 5 -3 1 2 5 10 11 12 7 6 17 -30 52 -25 23 -39 38 -31
34 10 -6 12 -5 7 2 -7 12 -88 14 -148 5z"/>
<path d="M523 641 c-46 -8 -143 -50 -143 -62 0 -14 78 -20 116 -9 22 6 57 26
78 45 44 39 40 41 -51 26z"/>
<path d="M260 535 c-10 -12 -10 -18 0 -29 16 -20 42 -8 38 17 -4 26 -21 32
-38 12z"/>
<path d="M165 469 c-4 -6 -5 -13 -2 -16 7 -7 27 6 27 18 0 12 -17 12 -25 -2z"/>
<path d="M383 445 c-7 -7 -18 -15 -25 -18 -9 -3 -7 -11 10 -26 16 -16 22 -18
22 -7 0 8 -8 17 -17 19 -16 4 -16 5 -2 6 9 0 20 8 23 17 8 22 4 25 -11 9z"/>
<path d="M584 450 c-11 -4 -33 -25 -48 -45 l-29 -37 -24 27 c-32 33 -42 25
-14 -11 25 -32 27 -57 6 -74 -12 -10 -13 -16 -4 -26 9 -11 18 0 44 54 40 83
60 101 122 112 l48 8 -40 0 c-22 0 -49 -3 -61 -8z"/>
<path d="M754 334 c-10 -8 -13 -13 -7 -9 7 3 23 8 34 10 29 6 37 15 13 15 -11
0 -29 -7 -40 -16z"/>
<path d="M576 308 c-3 -18 -16 -43 -28 -56 -13 -13 -16 -21 -8 -17 8 3 25 21
38 40 14 22 31 35 45 36 20 1 20 2 2 6 -11 3 -25 9 -31 14 -8 6 -13 -1 -18
-23z"/>
<path d="M685 321 c-18 -4 -25 -9 -18 -14 11 -7 63 7 63 18 0 6 -2 5 -45 -4z"/>
</g>
</svg>
