<?xml version="1.0" standalone="no"?>
<!DOCTYPE svg PUBLIC "-//W3C//DTD SVG 20010904//EN"
 "http://www.w3.org/TR/2001/REC-SVG-20010904/DTD/svg10.dtd">
<svg version="1.0" xmlns="http://www.w3.org/2000/svg"
 width="115.000000pt" height="57.000000pt" viewBox="0 0 135.000000 77.000000"
 preserveAspectRatio="xMidYMid meet">
<metadata>
Created by potrace 1.10, written by Peter Selinger 2001-2011
</metadata>
<g transform="translate(0.000000,77.000000) scale(0.100000,-0.100000)"
fill="#ffffff" stroke="none">
<path d="M294 676 c-51 -53 -64 -83 -64 -152 0 -19 -8 -41 -18 -51 -16 -15
-32 -44 -36 -63 -1 -3 -4 -9 -7 -15 -3 -5 -6 -37 -7 -71 -2 -54 0 -64 27 -94
25 -30 35 -34 80 -34 55 -1 65 -14 30 -38 -27 -17 -29 -66 -4 -85 20 -14 52
-9 105 18 35 17 56 26 118 49 20 8 31 18 28 26 -3 7 2 18 10 24 11 10 14 9 14
-4 0 -16 2 -16 15 -2 8 8 15 19 15 25 0 6 7 11 15 11 8 0 34 10 57 23 37 19
58 22 153 22 132 0 151 8 205 84 11 17 22 20 45 16 l30 -5 -30 14 c-26 13 -31
13 -42 0 -7 -9 -13 -11 -17 -5 -4 5 3 15 14 21 17 9 32 8 67 -4 26 -9 58 -16
72 -15 16 0 1 7 -36 18 -34 10 -69 24 -78 31 -23 19 -42 5 -50 -37 -8 -43 -27
-68 -67 -89 -31 -16 -84 -19 -93 -4 -20 33 -232 -36 -316 -102 -20 -16 -60
-38 -90 -49 -30 -11 -61 -27 -69 -34 -25 -21 -56 -27 -69 -12 -15 19 16 59 59
77 16 7 30 14 30 17 0 2 -12 15 -27 28 -25 21 -30 22 -55 9 -37 -19 -61 -18
-92 7 -24 19 -26 26 -26 95 0 70 2 76 34 112 30 33 34 43 30 77 -7 48 13 100
57 150 32 36 54 44 62 23 3 -10 9 -8 24 5 40 35 58 12 47 -62 -8 -54 -33 -108
-63 -135 -20 -18 -20 -20 -5 -38 23 -24 29 -23 83 16 61 45 115 71 204 100
147 48 217 43 286 -19 l37 -34 23 22 c22 22 22 22 37 3 8 -11 14 -28 14 -38 0
-23 24 -35 104 -49 75 -13 93 -31 58 -60 -12 -9 -22 -22 -22 -27 0 -5 -19 -12
-41 -16 -23 -4 -39 -9 -36 -12 11 -11 77 9 106 33 52 43 34 83 -45 101 -51 11
-99 34 -98 47 1 23 -68 59 -83 44 -7 -7 -28 1 -61 21 -52 33 -150 53 -188 39
-11 -4 -55 -19 -99 -32 -116 -37 -177 -67 -220 -107 -24 -23 -25 -23 -25 -3 0
11 7 26 15 33 8 7 12 16 9 21 -2 5 1 21 9 36 20 39 27 106 13 129 -12 20 -66
33 -66 15 0 -7 -8 -7 -22 -2 -20 7 -31 1 -74 -43z"/>
<path d="M390 640 c-32 -40 -70 -125 -70 -156 0 -11 8 -9 34 11 19 14 37 33
41 42 5 15 4 15 -13 0 -10 -9 -22 -17 -26 -17 -13 0 5 40 31 68 l25 27 -7 -30
c-4 -20 -3 -25 3 -15 10 15 25 110 18 110 -3 0 -19 -18 -36 -40z"/>
<path d="M991 431 c-11 -21 -26 -45 -33 -53 -7 -7 -22 -24 -33 -37 l-20 -24
21 13 c12 8 37 38 54 67 23 37 38 52 48 48 12 -4 13 -3 2 10 -17 20 -17 20
-39 -24z"/>
<path d="M264 359 c-8 -14 21 -43 35 -35 6 4 11 16 11 27 0 21 -34 27 -46 8z"/>
<path d="M412 329 c-6 -15 -25 -39 -44 -54 -18 -14 -23 -22 -11 -16 12 6 23 8
26 3 2 -4 2 -1 1 6 -2 6 1 12 6 12 5 0 13 -18 16 -40 6 -35 8 -38 26 -29 17 9
18 12 5 22 -20 16 -29 58 -16 73 6 7 9 21 6 31 -3 15 -6 13 -15 -8z"/>
<path d="M745 340 c-28 -8 -28 -9 10 -7 22 0 47 -3 54 -7 9 -6 12 -4 9 5 -5
17 -32 20 -73 9z"/>
<path d="M655 321 c-31 -10 -95 -52 -95 -62 0 -4 19 4 43 20 23 15 58 32 77
38 19 6 26 11 15 11 -11 0 -29 -3 -40 -7z"/>
<path d="M220 255 c0 -8 5 -15 10 -15 6 0 10 7 10 15 0 8 -4 15 -10 15 -5 0
-10 -7 -10 -15z"/>
</g>
</svg>
