<?xml version="1.0" standalone="no"?>
<!DOCTYPE svg PUBLIC "-//W3C//DTD SVG 20010904//EN"
 "http://www.w3.org/TR/2001/REC-SVG-20010904/DTD/svg10.dtd">
<svg version="1.0" xmlns="http://www.w3.org/2000/svg"
 width="135.000000pt" height="77.000000pt" viewBox="0 0 141.000000 90.000000"
 preserveAspectRatio="xMidYMid meet">
<metadata>
Created by potrace 1.10, written by Peter Selinger 2001-2011
</metadata>
<g transform="translate(0.000000,90.000000) scale(0.100000,-0.100000)"
fill="#ffffff" stroke="none">
<path d="M450 803 c-57 -32 -91 -74 -105 -131 -9 -36 -19 -50 -43 -62 -17 -8
-32 -20 -32 -27 0 -6 -5 -13 -10 -15 -14 -4 -39 -75 -40 -110 0 -14 -6 -29
-12 -31 -10 -4 -10 -6 0 -6 6 -1 12 -10 12 -21 0 -32 46 -70 85 -70 19 0 37
-5 41 -12 5 -8 2 -9 -9 -5 -9 3 -16 3 -14 -1 1 -4 -8 -17 -20 -29 -54 -54 -12
-106 69 -85 24 6 70 14 103 17 62 6 115 22 126 38 6 8 92 28 124 29 54 1 107
-8 116 -19 6 -7 18 -13 25 -13 8 0 14 -4 14 -9 0 -5 11 -11 25 -13 13 -3 22
-1 19 3 -3 5 4 9 15 9 12 0 21 -4 21 -9 0 -5 18 -4 43 1 23 6 50 10 59 10 11
0 15 4 11 15 -4 11 -3 14 6 9 6 -4 9 -16 6 -25 -8 -26 70 -92 116 -98 30 -4
39 -2 48 16 13 24 -6 76 -40 107 -10 9 -19 22 -19 27 0 6 -7 19 -16 28 -17 19
-30 114 -15 105 4 -3 6 7 3 22 -6 34 -44 73 -62 62 -8 -5 -28 9 -58 44 -25 28
-46 49 -46 47 -1 -2 -25 4 -55 14 -45 15 -72 17 -165 11 -119 -8 -142 -10
-166 -19 -104 -37 -125 -33 -75 14 13 13 25 30 25 37 0 7 6 15 14 18 14 5 26
36 32 84 4 32 -20 57 -54 56 -15 -1 -34 2 -42 5 -9 5 -34 -3 -60 -18z m88 -18
c51 21 63 -3 38 -69 -18 -46 -88 -126 -111 -126 -12 0 -12 -5 -3 -26 14 -30
17 -29 147 10 68 21 103 26 195 26 100 0 117 -3 164 -26 57 -28 82 -58 103
-119 17 -50 32 -70 19 -25 -7 23 -6 38 1 47 32 38 64 -20 37 -67 -14 -24 -13
-30 7 -76 12 -27 41 -70 64 -96 22 -25 41 -53 41 -62 0 -28 -47 -18 -88 19
-22 19 -42 32 -45 29 -3 -4 -6 2 -7 12 -1 43 -8 96 -13 101 -3 2 -14 0 -24 -6
-16 -9 -16 -10 6 -11 21 0 20 -3 -15 -26 -21 -15 -41 -30 -44 -33 -11 -15 -75
-10 -111 8 -88 46 -238 43 -359 -8 -25 -11 -70 -21 -100 -24 -30 -3 -68 -10
-84 -16 -37 -15 -56 -8 -56 19 0 22 50 50 90 50 25 0 25 4 -1 40 -18 24 -27
28 -50 23 -40 -8 -88 14 -95 43 -17 68 25 166 83 194 26 13 32 22 37 60 8 56
49 110 108 139 38 18 43 19 46 5 3 -10 9 -13 20 -9z m372 -543 c-7 -3 -19 3
-28 13 -16 15 -15 16 12 4 15 -7 23 -15 16 -17z"/>
<path d="M507 719 c-49 -44 -110 -129 -92 -129 17 0 83 42 105 67 l25 28 -31
-27 c-34 -31 -44 -34 -44 -14 0 19 48 56 63 50 7 -2 19 14 29 36 9 22 13 40 9
40 -4 0 -33 -23 -64 -51z"/>
<path d="M330 481 c0 -27 19 -36 37 -18 18 18 9 37 -18 37 -12 0 -19 -7 -19
-19z"/>
<path d="M475 437 c-4 -10 -23 -26 -43 -36 -22 -11 -31 -21 -23 -25 6 -4 11
-2 11 3 0 6 5 11 11 11 6 0 8 -7 5 -16 -3 -8 -1 -24 4 -34 7 -13 6 -20 -3 -23
-6 -3 0 -6 16 -6 27 -1 27 0 12 23 -16 24 -12 49 13 78 8 9 12 23 9 30 -3 9
-7 8 -12 -5z"/>
<path d="M660 356 c0 -8 60 -12 72 -4 8 4 -4 8 -29 8 -24 0 -43 -2 -43 -4z"/>
<path d="M840 342 c0 -5 9 -12 21 -15 13 -3 19 -1 16 6 -5 15 -37 22 -37 9z"/>
<path d="M608 333 c-9 -2 -19 -11 -22 -19 -4 -11 -1 -11 19 2 14 9 25 18 25
20 0 2 -1 3 -2 3 -2 -1 -10 -3 -20 -6z"/>
</g>
</svg>
