<?xml version="1.0" standalone="no"?>
<!DOCTYPE svg PUBLIC "-//W3C//DTD SVG 20010904//EN"
 "http://www.w3.org/TR/2001/REC-SVG-20010904/DTD/svg10.dtd">
<svg version="1.0" xmlns="http://www.w3.org/2000/svg"
 width="136.000000pt" height="117.000000pt" viewBox="0 0 136.000000 117.000000"
 preserveAspectRatio="xMidYMid meet">
<metadata>
Created by potrace 1.10, written by Peter Selinger 2001-2011
</metadata>
<g transform="translate(0.000000,117.000000) scale(0.100000,-0.100000)"
fill="#000000" stroke="none">
<path d="M495 858 c-52 -26 -93 -65 -112 -105 -8 -18 -21 -33 -27 -33 -20 0
-96 -53 -96 -67 0 -7 -4 -13 -10 -13 -5 0 -10 -7 -10 -15 0 -8 -5 -15 -11 -15
-6 0 -8 -8 -4 -19 3 -10 -1 -23 -9 -30 -20 -17 -9 -68 21 -99 14 -13 46 -28
78 -35 34 -7 57 -17 60 -27 3 -9 23 -27 46 -39 48 -27 88 -68 95 -99 4 -12 11
-22 16 -22 6 0 8 7 4 15 -3 8 -1 15 4 15 12 0 31 -36 23 -44 -3 -3 -1 -6 5 -6
6 0 14 5 17 11 10 15 -84 111 -127 131 -20 9 -47 33 -60 52 -21 33 -27 36 -71
36 -37 0 -53 5 -72 25 -33 32 -31 49 7 126 29 56 38 66 76 80 35 12 47 24 62
55 20 46 79 99 128 115 36 12 67 5 56 -12 -4 -8 3 -9 25 -4 38 8 50 -13 30
-53 -23 -44 -94 -109 -128 -117 -31 -7 -40 -26 -22 -53 15 -24 61 -1 134 64
85 77 153 106 247 108 75 1 117 -18 168 -72 29 -33 32 -34 32 -14 0 13 7 25
15 28 22 9 45 -14 45 -45 0 -31 -35 -91 -53 -91 -17 0 -48 -55 -41 -73 3 -8
-8 -39 -25 -69 -19 -33 -33 -75 -37 -111 -8 -70 -25 -97 -48 -78 -35 30 -29
149 11 193 9 10 13 21 10 24 -16 17 -254 -59 -326 -103 -2 -2 7 -35 20 -74
l24 -71 -24 -19 c-26 -21 -52 -24 -68 -8 -7 7 -13 8 -17 0 -8 -13 31 -24 70
-19 41 4 53 34 42 110 -7 53 -6 64 9 78 25 22 81 46 125 54 33 6 37 5 32 -11
-5 -16 -3 -16 13 2 26 29 56 29 47 1 -4 -11 -10 -46 -13 -76 -6 -51 -4 -57 20
-77 15 -13 33 -23 41 -23 18 0 45 29 47 50 3 40 14 79 21 75 5 -3 7 6 5 21 -1
14 3 31 9 37 18 19 34 59 41 100 4 23 15 43 30 53 78 51 68 187 -12 170 -22
-5 -36 -1 -57 17 -32 28 -111 50 -169 47 -79 -3 -86 -4 -81 -11 2 -4 -11 -10
-29 -13 -18 -3 -44 -14 -57 -23 -14 -10 -30 -18 -36 -19 -13 -2 -13 21 1 33 4
4 5 2 0 -6 -5 -9 -4 -12 2 -8 5 4 10 21 9 39 -1 28 -7 36 -46 55 -56 27 -75
27 -125 1z"/>
<path d="M560 780 c-71 -39 -153 -130 -102 -114 64 21 74 27 58 36 -13 7 -13
12 -3 22 8 10 16 11 25 4 9 -8 11 -7 7 5 -4 8 -2 18 4 22 6 3 11 1 11 -5 0 -6
5 -8 13 -4 8 5 7 2 -2 -9 -8 -10 -11 -20 -9 -23 5 -5 68 80 68 92 0 9 -17 3
-70 -26z"/>
<path d="M810 660 c-24 -24 -25 -51 -5 -90 16 -31 32 -42 21 -15 -5 13 -2 14
17 4 12 -7 36 -21 52 -32 20 -12 13 -3 -18 28 -45 42 -49 50 -45 86 2 21 2 39
1 39 -2 0 -12 -9 -23 -20z"/>
<path d="M340 584 c-10 -11 -10 -17 0 -28 15 -19 40 -10 40 14 0 24 -25 33
-40 14z"/>
<path d="M718 506 c-32 -9 -60 -26 -87 -54 -22 -22 -36 -43 -33 -47 3 -3 22
12 42 34 28 32 49 43 105 59 39 11 59 20 45 21 -14 0 -46 -6 -72 -13z"/>
<path d="M460 495 c-7 -8 -20 -15 -29 -15 -9 0 -23 -5 -31 -10 -11 -8 -8 -10
15 -8 17 2 30 -2 30 -9 0 -23 15 -25 15 -2 0 14 5 30 12 37 6 6 9 14 6 17 -3
3 -11 -1 -18 -10z"/>
</g>
</svg>
