<?xml version="1.0" standalone="no"?>
<!DOCTYPE svg PUBLIC "-//W3C//DTD SVG 20010904//EN"
 "http://www.w3.org/TR/2001/REC-SVG-20010904/DTD/svg10.dtd">
<svg version="1.0" xmlns="http://www.w3.org/2000/svg"
 width="125.000000pt" height="67.000000pt" viewBox="0 0 105.000000 87.000000"
 preserveAspectRatio="xMidYMid meet">
<metadata>
Created by potrace 1.10, written by Peter Selinger 2001-2011
</metadata>
<g transform="translate(0.000000,87.000000) scale(0.100000,-0.100000)"
fill="#fcfcfc" stroke="none">
<path d="M245 753 c-27 -14 -55 -33 -62 -42 -7 -9 -13 -12 -13 -6 0 5 -6 1
-14 -10 -19 -28 -26 -75 -15 -103 9 -24 66 -82 81 -82 14 0 51 -63 55 -93 3
-31 13 -54 66 -150 15 -26 27 -54 27 -62 0 -51 56 -98 91 -77 11 7 25 10 31 6
6 -4 8 -3 4 4 -3 5 -3 12 1 15 5 2 2 2 -5 0 -8 -2 -10 2 -5 10 4 6 6 21 4 32
-3 17 -1 18 16 5 10 -8 25 -23 34 -33 13 -16 23 -18 53 -13 46 9 46 20 -1 34
-21 6 -50 22 -64 35 -30 29 -69 51 -76 44 -2 -3 1 -15 7 -27 17 -32 9 -94 -13
-98 -22 -4 -46 24 -47 56 0 12 -5 22 -11 22 -5 0 -8 4 -4 9 3 6 -8 32 -25 59
-16 27 -30 55 -30 61 0 7 -3 10 -7 8 -5 -3 -8 7 -9 21 -2 57 -42 126 -93 161
-27 18 -55 46 -62 63 -10 25 -9 33 8 56 11 15 44 42 74 60 58 35 83 37 142 7
22 -11 34 -12 49 -4 34 18 139 6 182 -20 34 -21 37 -26 23 -36 -15 -11 -14
-13 8 -23 44 -20 31 -49 -29 -62 -27 -6 -28 -8 -11 -14 66 -22 114 -58 163
-122 29 -38 57 -86 64 -106 10 -34 13 -36 36 -27 36 14 55 4 47 -23 -16 -52
-79 -82 -122 -59 -14 7 -23 7 -32 -2 -7 -7 -39 -11 -79 -10 l-67 1 55 -7 c62
-9 103 -27 98 -43 -6 -18 -140 -67 -182 -68 -23 0 -47 7 -58 17 -10 9 -18 11
-18 5 0 -21 44 -42 87 -42 88 0 222 84 179 112 -6 4 14 8 44 8 57 1 89 17 103
53 4 10 11 16 17 12 5 -3 3 9 -4 27 -8 18 -24 38 -37 45 -34 17 -59 36 -59 44
0 11 -67 108 -72 104 -2 -2 -12 9 -23 26 -11 16 -26 29 -33 29 -7 0 -11 4 -7
9 3 5 -4 12 -15 16 -17 5 -18 10 -9 27 9 16 7 30 -7 62 -23 51 -30 58 -79 82
-31 15 -58 18 -123 16 -46 -1 -91 2 -100 7 -42 21 -77 19 -127 -6z"/>
<path d="M281 656 c-16 -19 -7 -46 14 -46 22 0 30 29 13 46 -13 13 -16 13 -27
0z"/>
<path d="M176 640 c-15 -5 -16 -9 -7 -14 7 -5 18 -3 24 3 14 14 6 20 -17 11z"/>
<path d="M421 633 c19 -22 88 -53 119 -53 14 0 45 6 69 14 l45 13 -64 21 c-37
13 -89 22 -123 22 -54 0 -58 -1 -46 -17z"/>
<path d="M338 523 c-26 -4 -40 -23 -17 -23 6 0 8 -9 4 -22 -6 -22 -5 -22 6 -3
6 11 21 28 33 37 11 10 17 17 11 16 -5 0 -22 -3 -37 -5z"/>
<path d="M404 450 c3 -14 6 -38 6 -53 0 -16 4 -26 9 -23 17 11 41 -6 63 -45
12 -21 25 -39 30 -39 16 0 -38 85 -60 95 -12 5 -22 19 -22 30 0 12 -7 30 -16
41 -15 18 -15 18 -10 -6z"/>
<path d="M815 280 l-30 -6 28 -6 c15 -3 30 -1 33 4 9 13 3 15 -31 8z"/>
</g>
</svg>
