<?xml version="1.0" standalone="no"?>
<!DOCTYPE svg PUBLIC "-//W3C//DTD SVG 20010904//EN"
 "http://www.w3.org/TR/2001/REC-SVG-20010904/DTD/svg10.dtd">
<svg version="1.0" xmlns="http://www.w3.org/2000/svg"
width="155.000000pt" height="97.000000pt" viewBox="0 0 106.000000 101.000000"
 preserveAspectRatio="xMidYMid meet">
<metadata>
Created by potrace 1.10, written by Peter Selinger 2001-2011
</metadata>
<g transform="translate(0.000000,101.000000) scale(0.100000,-0.100000)"
fill="#ffffff" stroke="none">
<path d="M386 913 c-4 -4 -11 -8 -14 -8 -4 -1 -21 -9 -39 -18 -18 -9 -53 -17
-78 -17 -44 0 -115 -24 -115 -39 0 -3 -10 -17 -23 -31 -38 -42 -59 -95 -48
-123 6 -14 15 -28 21 -32 5 -3 8 -10 5 -14 -2 -5 7 -13 20 -19 32 -15 32 -28
1 -36 -61 -15 -76 -75 -26 -101 16 -8 47 -17 67 -20 21 -2 69 -13 107 -23 43
-13 77 -17 90 -12 28 10 146 -15 191 -41 19 -12 40 -30 46 -40 5 -11 14 -19
20 -19 6 0 7 6 3 13 -5 6 6 -1 23 -18 17 -17 26 -33 20 -36 -16 -11 28 -29 70
-29 49 0 55 -6 77 -63 10 -26 22 -47 27 -47 5 0 9 -6 9 -13 0 -37 76 -69 88
-38 3 9 9 18 13 21 4 3 3 23 -2 45 -30 121 -32 143 -19 175 7 16 16 27 21 25
12 -8 23 66 12 84 -5 9 -19 20 -31 26 -13 5 -22 19 -22 31 0 44 -77 136 -141
169 -39 21 -188 76 -206 78 -16 1 4 27 21 27 6 0 17 14 25 31 13 31 13 32 -32
74 -43 40 -49 42 -109 44 -35 1 -68 -2 -72 -6z m129 -23 c18 -7 25 -15 21 -25
-3 -9 0 -15 7 -15 7 0 22 -6 32 -14 19 -14 19 -15 0 -37 -32 -36 -94 -59 -160
-59 -42 0 -56 -3 -45 -10 8 -5 44 -10 80 -10 128 0 304 -65 369 -135 39 -43
68 -113 57 -141 -5 -12 1 -14 29 -8 33 6 35 4 35 -19 0 -15 -10 -33 -25 -45
-22 -18 -25 -27 -25 -83 1 -36 9 -88 19 -118 19 -56 18 -81 -3 -81 -19 0 -54
42 -67 78 -6 18 -15 32 -19 32 -4 0 -4 19 1 41 6 23 7 44 4 47 -3 3 -26 1 -50
-6 -55 -15 -88 -15 -80 -2 3 5 -1 10 -9 10 -8 0 -28 16 -43 35 -56 71 -205
129 -343 133 -25 1 -67 8 -95 17 -27 8 -64 15 -81 15 -40 0 -62 23 -43 46 11
13 25 15 72 9 55 -6 59 -5 52 12 -4 10 -7 26 -7 35 0 11 -10 19 -28 23 -31 7
-80 41 -80 56 0 5 9 9 20 9 12 0 20 7 20 16 0 14 -3 14 -15 4 -9 -7 -19 -10
-22 -6 -10 10 24 68 64 110 33 34 39 36 99 36 35 0 66 5 70 11 11 19 87 49
126 49 20 0 49 -5 63 -10z"/>
<path d="M430 814 c-81 -27 -101 -37 -91 -47 6 -6 38 -11 71 -12 45 0 70 6
105 25 25 13 45 28 45 32 0 9 -105 10 -130 2z m70 -25 c0 -10 -28 -19 -61 -19
-16 0 -29 5 -29 11 0 6 9 9 20 6 11 -3 17 -1 14 4 -3 5 8 8 25 7 17 -1 31 -5
31 -9z"/>
<path d="M207 753 c-15 -14 -7 -43 12 -43 26 0 36 17 21 35 -14 16 -23 19 -33
8z"/>
<path d="M310 640 c-8 -6 -30 -10 -47 -10 -18 0 -33 -4 -33 -10 0 -5 7 -10 16
-10 11 0 14 -5 10 -16 -18 -46 -18 -64 -1 -64 12 0 15 5 10 19 -7 22 13 61 31
61 13 0 39 28 33 35 -3 2 -11 0 -19 -5z"/>
<path d="M380 491 c0 -5 22 -8 48 -8 27 0 59 -6 71 -12 13 -7 25 -10 28 -7 10
9 -50 29 -99 32 -27 2 -48 0 -48 -5z"/>
<path d="M566 435 c10 -8 24 -15 30 -15 6 0 17 -7 24 -15 7 -8 17 -12 23 -8 5
3 -10 16 -34 29 -50 26 -72 31 -43 9z"/>
<path d="M720 320 c8 -5 24 -9 35 -9 20 0 20 0 0 9 -11 5 -27 9 -35 9 -13 1
-13 0 0 -9z"/>
<path d="M815 310 c3 -5 13 -10 21 -10 8 0 12 5 9 10 -3 6 -13 10 -21 10 -8 0
-12 -4 -9 -10z"/>
</g>
</svg>
